<?xml version="1.0" encoding="UTF-8" standalone="no"?>
<!DOCTYPE svg PUBLIC "-//W3C//DTD SVG 1.1//EN"
 "http://www.w3.org/Graphics/SVG/1.1/DTD/svg11.dtd">
<!-- Generated by graphviz version 2.47.0 (20210316.0004)
 -->
<!-- Title: dependencies Pages: 1 -->
<svg width="1743pt" height="284pt"
 viewBox="0.00 0.00 1743.00 284.00" xmlns="http://www.w3.org/2000/svg" xmlns:xlink="http://www.w3.org/1999/xlink">
<g id="graph0" class="graph" transform="scale(1 1) rotate(0) translate(4 280)">
<title>dependencies</title>
<polygon fill="white" stroke="transparent" points="-4,4 -4,-280 1739,-280 1739,4 -4,4"/>
<text text-anchor="start" x="846.51" y="-42.4" font-family="sans-serif" font-weight="bold" font-size="14.00">Legend</text>
<polygon fill="#ffffb3" stroke="transparent" points="633.5,-10 633.5,-30 653.5,-30 653.5,-10 633.5,-10"/>
<text text-anchor="start" x="657.13" y="-15.4" font-family="sans-serif" font-size="14.00"> &#160;Declarations</text>
<polygon fill="#8dd3c7" stroke="transparent" points="746.5,-10 746.5,-30 766.5,-30 766.5,-10 746.5,-10"/>
<text text-anchor="start" x="770.23" y="-15.4" font-family="sans-serif" font-size="14.00"> &#160;Module</text>
<polygon fill="#80b1d3" stroke="transparent" points="832.5,-10 832.5,-30 852.5,-30 852.5,-10 832.5,-10"/>
<text text-anchor="start" x="856.28" y="-15.4" font-family="sans-serif" font-size="14.00"> &#160;Bootstrap</text>
<polygon fill="#fdb462" stroke="transparent" points="929.5,-10 929.5,-30 949.5,-30 949.5,-10 929.5,-10"/>
<text text-anchor="start" x="953.17" y="-15.4" font-family="sans-serif" font-size="14.00"> &#160;Providers</text>
<polygon fill="#fb8072" stroke="transparent" points="1025.5,-10 1025.5,-30 1045.5,-30 1045.5,-10 1025.5,-10"/>
<text text-anchor="start" x="1049.23" y="-15.4" font-family="sans-serif" font-size="14.00"> &#160;Exports</text>
<g id="clust1" class="cluster">
<title>cluster_AppModule</title>
<polygon fill="none" stroke="black" stroke-dasharray="1,5" points="8,-70 8,-268 1727,-268 1727,-70 8,-70"/>
</g>
<g id="clust14" class="cluster">
<title>cluster_AppModule_bootstrap</title>
<polygon fill="none" stroke="black" points="774,-208 774,-260 898,-260 898,-208 774,-208"/>
</g>
<g id="clust12" class="cluster">
<title>cluster_AppModule_imports</title>
<polygon fill="none" stroke="black" points="1575,-78 1575,-130 1719,-130 1719,-78 1575,-78"/>
</g>
<g id="clust2" class="cluster">
<title>cluster_AppModule_declarations</title>
<polygon fill="none" stroke="black" points="16,-78 16,-130 1567,-130 1567,-78 16,-78"/>
</g>
<!-- AppComponent -->
<g id="node1" class="node">
<title>AppComponent</title>
<polygon fill="#ffffb3" stroke="black" points="1558.94,-122 1453.06,-122 1453.06,-86 1558.94,-86 1558.94,-122"/>
<text text-anchor="middle" x="1506" y="-99.8" font-family="Times,serif" font-size="14.00">AppComponent</text>
</g>
<!-- AppModule -->
<g id="node10" class="node">
<title>AppModule</title>
<polygon fill="#8dd3c7" stroke="black" points="877.66,-187 874.66,-191 853.66,-191 850.66,-187 794.34,-187 794.34,-151 877.66,-151 877.66,-187"/>
<text text-anchor="middle" x="836" y="-164.8" font-family="Times,serif" font-size="14.00">AppModule</text>
</g>
<!-- AppComponent&#45;&gt;AppModule -->
<g id="edge1" class="edge">
<title>AppComponent&#45;&gt;AppModule</title>
<path fill="none" stroke="black" d="M1506,-122.13C1506,-142.57 1506,-173 1506,-173 1506,-173 887.66,-173 887.66,-173"/>
<polygon fill="black" stroke="black" points="887.66,-169.5 877.66,-173 887.66,-176.5 887.66,-169.5"/>
</g>
<!-- ChuckNorrisInfoComponent -->
<g id="node2" class="node">
<title>ChuckNorrisInfoComponent</title>
<polygon fill="#ffffb3" stroke="black" points="1435.47,-122 1258.53,-122 1258.53,-86 1435.47,-86 1435.47,-122"/>
<text text-anchor="middle" x="1347" y="-99.8" font-family="Times,serif" font-size="14.00">ChuckNorrisInfoComponent</text>
</g>
<!-- ChuckNorrisInfoComponent&#45;&gt;AppModule -->
<g id="edge2" class="edge">
<title>ChuckNorrisInfoComponent&#45;&gt;AppModule</title>
<path fill="none" stroke="black" d="M1347,-122.27C1347,-140.56 1347,-166 1347,-166 1347,-166 887.82,-166 887.82,-166"/>
<polygon fill="black" stroke="black" points="887.82,-162.5 877.82,-166 887.82,-169.5 887.82,-162.5"/>
</g>
<!-- CountryInformationComponent -->
<g id="node3" class="node">
<title>CountryInformationComponent</title>
<polygon fill="#ffffb3" stroke="black" points="1240.09,-122 1045.91,-122 1045.91,-86 1240.09,-86 1240.09,-122"/>
<text text-anchor="middle" x="1143" y="-99.8" font-family="Times,serif" font-size="14.00">CountryInformationComponent</text>
</g>
<!-- CountryInformationComponent&#45;&gt;AppModule -->
<g id="edge3" class="edge">
<title>CountryInformationComponent&#45;&gt;AppModule</title>
<path fill="none" stroke="black" d="M1143,-122.01C1143,-138.05 1143,-159 1143,-159 1143,-159 887.72,-159 887.72,-159"/>
<polygon fill="black" stroke="black" points="887.72,-155.5 877.72,-159 887.72,-162.5 887.72,-155.5"/>
</g>
<!-- Covid19InformationComponent -->
<g id="node4" class="node">
<title>Covid19InformationComponent</title>
<polygon fill="#ffffb3" stroke="black" points="1028.43,-122 831.57,-122 831.57,-86 1028.43,-86 1028.43,-122"/>
<text text-anchor="middle" x="930" y="-99.8" font-family="Times,serif" font-size="14.00">Covid19InformationComponent</text>
</g>
<!-- Covid19InformationComponent&#45;&gt;AppModule -->
<g id="edge4" class="edge">
<title>Covid19InformationComponent&#45;&gt;AppModule</title>
<path fill="none" stroke="black" d="M854.81,-122.11C854.81,-122.11 854.81,-140.99 854.81,-140.99"/>
<polygon fill="black" stroke="black" points="851.31,-140.99 854.81,-150.99 858.31,-140.99 851.31,-140.99"/>
</g>
<!-- DashboardComponent -->
<g id="node5" class="node">
<title>DashboardComponent</title>
<polygon fill="#ffffb3" stroke="black" points="813.97,-122 672.03,-122 672.03,-86 813.97,-86 813.97,-122"/>
<text text-anchor="middle" x="743" y="-99.8" font-family="Times,serif" font-size="14.00">DashboardComponent</text>
</g>
<!-- DashboardComponent&#45;&gt;AppModule -->
<g id="edge5" class="edge">
<title>DashboardComponent&#45;&gt;AppModule</title>
<path fill="none" stroke="black" d="M804.08,-122.11C804.08,-122.11 804.08,-140.99 804.08,-140.99"/>
<polygon fill="black" stroke="black" points="800.58,-140.99 804.08,-150.99 807.58,-140.99 800.58,-140.99"/>
</g>
<!-- FilterCountriesPipe -->
<g id="node6" class="node">
<title>FilterCountriesPipe</title>
<polygon fill="#ffffb3" stroke="black" points="653.66,-122 528.34,-122 528.34,-86 653.66,-86 653.66,-122"/>
<text text-anchor="middle" x="591" y="-99.8" font-family="Times,serif" font-size="14.00">FilterCountriesPipe</text>
</g>
<!-- FilterCountriesPipe&#45;&gt;AppModule -->
<g id="edge6" class="edge">
<title>FilterCountriesPipe&#45;&gt;AppModule</title>
<path fill="none" stroke="black" d="M591,-122.01C591,-138.05 591,-159 591,-159 591,-159 784.16,-159 784.16,-159"/>
<polygon fill="black" stroke="black" points="784.16,-162.5 794.16,-159 784.16,-155.5 784.16,-162.5"/>
</g>
<!-- FilterProvincesPipe -->
<g id="node7" class="node">
<title>FilterProvincesPipe</title>
<polygon fill="#ffffb3" stroke="black" points="510.43,-122 383.57,-122 383.57,-86 510.43,-86 510.43,-122"/>
<text text-anchor="middle" x="447" y="-99.8" font-family="Times,serif" font-size="14.00">FilterProvincesPipe</text>
</g>
<!-- FilterProvincesPipe&#45;&gt;AppModule -->
<g id="edge7" class="edge">
<title>FilterProvincesPipe&#45;&gt;AppModule</title>
<path fill="none" stroke="black" d="M447,-122.27C447,-140.56 447,-166 447,-166 447,-166 784,-166 784,-166"/>
<polygon fill="black" stroke="black" points="784,-169.5 794,-166 784,-162.5 784,-169.5"/>
</g>
<!-- NavbarComponent -->
<g id="node8" class="node">
<title>NavbarComponent</title>
<polygon fill="#ffffb3" stroke="black" points="366.03,-122 243.97,-122 243.97,-86 366.03,-86 366.03,-122"/>
<text text-anchor="middle" x="305" y="-99.8" font-family="Times,serif" font-size="14.00">NavbarComponent</text>
</g>
<!-- NavbarComponent&#45;&gt;AppModule -->
<g id="edge8" class="edge">
<title>NavbarComponent&#45;&gt;AppModule</title>
<path fill="none" stroke="black" d="M305,-122.13C305,-142.57 305,-173 305,-173 305,-173 784.33,-173 784.33,-173"/>
<polygon fill="black" stroke="black" points="784.33,-176.5 794.33,-173 784.33,-169.5 784.33,-176.5"/>
</g>
<!-- NumbersCuriousFactComponent -->
<g id="node9" class="node">
<title>NumbersCuriousFactComponent</title>
<polygon fill="#ffffb3" stroke="black" points="225.58,-122 24.42,-122 24.42,-86 225.58,-86 225.58,-122"/>
<text text-anchor="middle" x="125" y="-99.8" font-family="Times,serif" font-size="14.00">NumbersCuriousFactComponent</text>
</g>
<!-- NumbersCuriousFactComponent&#45;&gt;AppModule -->
<g id="edge9" class="edge">
<title>NumbersCuriousFactComponent&#45;&gt;AppModule</title>
<path fill="none" stroke="black" d="M125,-122.01C125,-144.49 125,-180 125,-180 125,-180 784.18,-180 784.18,-180"/>
<polygon fill="black" stroke="black" points="784.18,-183.5 794.18,-180 784.18,-176.5 784.18,-183.5"/>
</g>
<!-- AppComponent  -->
<g id="node12" class="node">
<title>AppComponent </title>
<polygon fill="#80b1d3" stroke="black" points="890.44,-252 781.56,-252 781.56,-216 890.44,-216 890.44,-252"/>
<text text-anchor="middle" x="836" y="-229.8" font-family="Times,serif" font-size="14.00">AppComponent </text>
</g>
<!-- AppModule&#45;&gt;AppComponent  -->
<g id="edge11" class="edge">
<title>AppModule&#45;&gt;AppComponent </title>
<path fill="none" stroke="black" stroke-dasharray="1,5" d="M836,-187.11C836,-187.11 836,-205.99 836,-205.99"/>
<polygon fill="black" stroke="black" points="832.5,-205.99 836,-215.99 839.5,-205.99 832.5,-205.99"/>
</g>
<!-- AppRoutingModule -->
<g id="node11" class="node">
<title>AppRoutingModule</title>
<polygon fill="#8dd3c7" stroke="black" points="1711.27,-122 1708.27,-126 1687.27,-126 1684.27,-122 1582.73,-122 1582.73,-86 1711.27,-86 1711.27,-122"/>
<text text-anchor="middle" x="1647" y="-99.8" font-family="Times,serif" font-size="14.00">AppRoutingModule</text>
</g>
<!-- AppRoutingModule&#45;&gt;AppModule -->
<g id="edge10" class="edge">
<title>AppRoutingModule&#45;&gt;AppModule</title>
<path fill="none" stroke="black" d="M1647,-122.01C1647,-144.49 1647,-180 1647,-180 1647,-180 887.9,-180 887.9,-180"/>
<polygon fill="black" stroke="black" points="887.9,-176.5 877.9,-180 887.9,-183.5 887.9,-176.5"/>
</g>
</g>
</svg>
