<?xml version="1.0" encoding="UTF-8" standalone="no"?>
<!DOCTYPE svg PUBLIC "-//W3C//DTD SVG 1.1//EN"
 "http://www.w3.org/Graphics/SVG/1.1/DTD/svg11.dtd">
<!-- Generated by graphviz version 2.47.0 (20210316.0004)
 -->
<!-- Title: dependencies Pages: 1 -->
<svg width="1743pt" height="284pt"
 viewBox="0.00 0.00 1743.00 284.00" xmlns="http://www.w3.org/2000/svg" xmlns:xlink="http://www.w3.org/1999/xlink">
<g id="graph0" class="graph" transform="scale(1 1) rotate(0) translate(4 280)">
<title>dependencies</title>
<polygon fill="white" stroke="transparent" points="-4,4 -4,-280 1739,-280 1739,4 -4,4"/>
<text text-anchor="start" x="846.51" y="-42.4" font-family="sans-serif" font-weight="bold" font-size="14.00">Legend</text>
<polygon fill="#ffffb3" stroke="transparent" points="633.5,-10 633.5,-30 653.5,-30 653.5,-10 633.5,-10"/>
<text text-anchor="start" x="657.13" y="-15.4" font-family="sans-serif" font-size="14.00"> &#160;Declarations</text>
<polygon fill="#8dd3c7" stroke="transparent" points="746.5,-10 746.5,-30 766.5,-30 766.5,-10 746.5,-10"/>
<text text-anchor="start" x="770.23" y="-15.4" font-family="sans-serif" font-size="14.00"> &#160;Module</text>
<polygon fill="#80b1d3" stroke="transparent" points="832.5,-10 832.5,-30 852.5,-30 852.5,-10 832.5,-10"/>
<text text-anchor="start" x="856.28" y="-15.4" font-family="sans-serif" font-size="14.00"> &#160;Bootstrap</text>
<polygon fill="#fdb462" stroke="transparent" points="929.5,-10 929.5,-30 949.5,-30 949.5,-10 929.5,-10"/>
<text text-anchor="start" x="953.17" y="-15.4" font-family="sans-serif" font-size="14.00"> &#160;Providers</text>
<polygon fill="#fb8072" stroke="transparent" points="1025.5,-10 1025.5,-30 1045.5,-30 1045.5,-10 1025.5,-10"/>
<text text-anchor="start" x="1049.23" y="-15.4" font-family="sans-serif" font-size="14.00"> &#160;Exports</text>
<g id="clust1" class="cluster">
<title>cluster_AppModule</title>
<polygon fill="none" stroke="black" stroke-dasharray="1,5" points="8,-70 8,-268 1727,-268 1727,-70 8,-70"/>
</g>
<g id="clust2" class="cluster">
<title>cluster_AppModule_declarations</title>
<polygon fill="none" stroke="black" points="168,-78 168,-130 1719,-130 1719,-78 168,-78"/>
</g>
<g id="clust12" class="cluster">
<title>cluster_AppModule_imports</title>
<polygon fill="none" stroke="black" points="16,-78 16,-130 160,-130 160,-78 16,-78"/>
</g>
<g id="clust14" class="cluster">
<title>cluster_AppModule_bootstrap</title>
<polygon fill="none" stroke="black" points="757,-208 757,-260 881,-260 881,-208 757,-208"/>
</g>
<!-- AppComponent -->
<g id="node1" class="node">
<title>AppComponent</title>
<polygon fill="#ffffb3" stroke="black" points="1710.94,-122 1605.06,-122 1605.06,-86 1710.94,-86 1710.94,-122"/>
<text text-anchor="middle" x="1658" y="-99.8" font-family="Times,serif" font-size="14.00">AppComponent</text>
</g>
<!-- AppModule -->
<g id="node10" class="node">
<title>AppModule</title>
<polygon fill="#8dd3c7" stroke="black" points="860.66,-187 857.66,-191 836.66,-191 833.66,-187 777.34,-187 777.34,-151 860.66,-151 860.66,-187"/>
<text text-anchor="middle" x="819" y="-164.8" font-family="Times,serif" font-size="14.00">AppModule</text>
</g>
<!-- AppComponent&#45;&gt;AppModule -->
<g id="edge1" class="edge">
<title>AppComponent&#45;&gt;AppModule</title>
<path fill="none" stroke="black" d="M1658,-122.01C1658,-144.49 1658,-180 1658,-180 1658,-180 870.89,-180 870.89,-180"/>
<polygon fill="black" stroke="black" points="870.89,-176.5 860.89,-180 870.89,-183.5 870.89,-176.5"/>
</g>
<!-- ChuckNorrisInfoComponent -->
<g id="node2" class="node">
<title>ChuckNorrisInfoComponent</title>
<polygon fill="#ffffb3" stroke="black" points="1587.47,-122 1410.53,-122 1410.53,-86 1587.47,-86 1587.47,-122"/>
<text text-anchor="middle" x="1499" y="-99.8" font-family="Times,serif" font-size="14.00">ChuckNorrisInfoComponent</text>
</g>
<!-- ChuckNorrisInfoComponent&#45;&gt;AppModule -->
<g id="edge2" class="edge">
<title>ChuckNorrisInfoComponent&#45;&gt;AppModule</title>
<path fill="none" stroke="black" d="M1499,-122.13C1499,-142.57 1499,-173 1499,-173 1499,-173 870.77,-173 870.77,-173"/>
<polygon fill="black" stroke="black" points="870.77,-169.5 860.77,-173 870.77,-176.5 870.77,-169.5"/>
</g>
<!-- CountryInformationComponent -->
<g id="node3" class="node">
<title>CountryInformationComponent</title>
<polygon fill="#ffffb3" stroke="black" points="1392.09,-122 1197.91,-122 1197.91,-86 1392.09,-86 1392.09,-122"/>
<text text-anchor="middle" x="1295" y="-99.8" font-family="Times,serif" font-size="14.00">CountryInformationComponent</text>
</g>
<!-- CountryInformationComponent&#45;&gt;AppModule -->
<g id="edge3" class="edge">
<title>CountryInformationComponent&#45;&gt;AppModule</title>
<path fill="none" stroke="black" d="M1295,-122.27C1295,-140.56 1295,-166 1295,-166 1295,-166 870.82,-166 870.82,-166"/>
<polygon fill="black" stroke="black" points="870.82,-162.5 860.82,-166 870.82,-169.5 870.82,-162.5"/>
</g>
<!-- Covid19InformationComponent -->
<g id="node4" class="node">
<title>Covid19InformationComponent</title>
<polygon fill="#ffffb3" stroke="black" points="1180.43,-122 983.57,-122 983.57,-86 1180.43,-86 1180.43,-122"/>
<text text-anchor="middle" x="1082" y="-99.8" font-family="Times,serif" font-size="14.00">Covid19InformationComponent</text>
</g>
<!-- Covid19InformationComponent&#45;&gt;AppModule -->
<g id="edge4" class="edge">
<title>Covid19InformationComponent&#45;&gt;AppModule</title>
<path fill="none" stroke="black" d="M1082,-122.01C1082,-138.05 1082,-159 1082,-159 1082,-159 870.67,-159 870.67,-159"/>
<polygon fill="black" stroke="black" points="870.67,-155.5 860.67,-159 870.67,-162.5 870.67,-155.5"/>
</g>
<!-- DashboardComponent -->
<g id="node5" class="node">
<title>DashboardComponent</title>
<polygon fill="#ffffb3" stroke="black" points="965.97,-122 824.03,-122 824.03,-86 965.97,-86 965.97,-122"/>
<text text-anchor="middle" x="895" y="-99.8" font-family="Times,serif" font-size="14.00">DashboardComponent</text>
</g>
<!-- DashboardComponent&#45;&gt;AppModule -->
<g id="edge5" class="edge">
<title>DashboardComponent&#45;&gt;AppModule</title>
<path fill="none" stroke="black" d="M842.42,-122.11C842.42,-122.11 842.42,-140.99 842.42,-140.99"/>
<polygon fill="black" stroke="black" points="838.92,-140.99 842.42,-150.99 845.92,-140.99 838.92,-140.99"/>
</g>
<!-- FilterCountriesPipe -->
<g id="node6" class="node">
<title>FilterCountriesPipe</title>
<polygon fill="#ffffb3" stroke="black" points="805.66,-122 680.34,-122 680.34,-86 805.66,-86 805.66,-122"/>
<text text-anchor="middle" x="743" y="-99.8" font-family="Times,serif" font-size="14.00">FilterCountriesPipe</text>
</g>
<!-- FilterCountriesPipe&#45;&gt;AppModule -->
<g id="edge6" class="edge">
<title>FilterCountriesPipe&#45;&gt;AppModule</title>
<path fill="none" stroke="black" d="M791.5,-122.11C791.5,-122.11 791.5,-140.99 791.5,-140.99"/>
<polygon fill="black" stroke="black" points="788,-140.99 791.5,-150.99 795,-140.99 788,-140.99"/>
</g>
<!-- FilterProvincesPipe -->
<g id="node7" class="node">
<title>FilterProvincesPipe</title>
<polygon fill="#ffffb3" stroke="black" points="662.43,-122 535.57,-122 535.57,-86 662.43,-86 662.43,-122"/>
<text text-anchor="middle" x="599" y="-99.8" font-family="Times,serif" font-size="14.00">FilterProvincesPipe</text>
</g>
<!-- FilterProvincesPipe&#45;&gt;AppModule -->
<g id="edge7" class="edge">
<title>FilterProvincesPipe&#45;&gt;AppModule</title>
<path fill="none" stroke="black" d="M599,-122.01C599,-138.05 599,-159 599,-159 599,-159 767.1,-159 767.1,-159"/>
<polygon fill="black" stroke="black" points="767.1,-162.5 777.1,-159 767.1,-155.5 767.1,-162.5"/>
</g>
<!-- NavbarComponent -->
<g id="node8" class="node">
<title>NavbarComponent</title>
<polygon fill="#ffffb3" stroke="black" points="518.03,-122 395.97,-122 395.97,-86 518.03,-86 518.03,-122"/>
<text text-anchor="middle" x="457" y="-99.8" font-family="Times,serif" font-size="14.00">NavbarComponent</text>
</g>
<!-- NavbarComponent&#45;&gt;AppModule -->
<g id="edge8" class="edge">
<title>NavbarComponent&#45;&gt;AppModule</title>
<path fill="none" stroke="black" d="M457,-122.27C457,-140.56 457,-166 457,-166 457,-166 767.12,-166 767.12,-166"/>
<polygon fill="black" stroke="black" points="767.12,-169.5 777.12,-166 767.12,-162.5 767.12,-169.5"/>
</g>
<!-- NumbersCuriousFactComponent -->
<g id="node9" class="node">
<title>NumbersCuriousFactComponent</title>
<polygon fill="#ffffb3" stroke="black" points="377.58,-122 176.42,-122 176.42,-86 377.58,-86 377.58,-122"/>
<text text-anchor="middle" x="277" y="-99.8" font-family="Times,serif" font-size="14.00">NumbersCuriousFactComponent</text>
</g>
<!-- NumbersCuriousFactComponent&#45;&gt;AppModule -->
<g id="edge9" class="edge">
<title>NumbersCuriousFactComponent&#45;&gt;AppModule</title>
<path fill="none" stroke="black" d="M277,-122.13C277,-142.57 277,-173 277,-173 277,-173 766.92,-173 766.92,-173"/>
<polygon fill="black" stroke="black" points="766.92,-176.5 776.92,-173 766.92,-169.5 766.92,-176.5"/>
</g>
<!-- AppComponent  -->
<g id="node12" class="node">
<title>AppComponent </title>
<polygon fill="#80b1d3" stroke="black" points="873.44,-252 764.56,-252 764.56,-216 873.44,-216 873.44,-252"/>
<text text-anchor="middle" x="819" y="-229.8" font-family="Times,serif" font-size="14.00">AppComponent </text>
</g>
<!-- AppModule&#45;&gt;AppComponent  -->
<g id="edge11" class="edge">
<title>AppModule&#45;&gt;AppComponent </title>
<path fill="none" stroke="black" stroke-dasharray="1,5" d="M819,-187.11C819,-187.11 819,-205.99 819,-205.99"/>
<polygon fill="black" stroke="black" points="815.5,-205.99 819,-215.99 822.5,-205.99 815.5,-205.99"/>
</g>
<!-- AppRoutingModule -->
<g id="node11" class="node">
<title>AppRoutingModule</title>
<polygon fill="#8dd3c7" stroke="black" points="152.27,-122 149.27,-126 128.27,-126 125.27,-122 23.73,-122 23.73,-86 152.27,-86 152.27,-122"/>
<text text-anchor="middle" x="88" y="-99.8" font-family="Times,serif" font-size="14.00">AppRoutingModule</text>
</g>
<!-- AppRoutingModule&#45;&gt;AppModule -->
<g id="edge10" class="edge">
<title>AppRoutingModule&#45;&gt;AppModule</title>
<path fill="none" stroke="black" d="M88,-122.01C88,-144.49 88,-180 88,-180 88,-180 767.34,-180 767.34,-180"/>
<polygon fill="black" stroke="black" points="767.34,-183.5 777.34,-180 767.34,-176.5 767.34,-183.5"/>
</g>
</g>
</svg>
